# xmcd
#
# Track frame offsets: 
#        183
#        21605
#        42820
#        61113
#        78595
#        97538
#        117358
#        133920
#        150783
#        168233
#        187833
#        202970
#        222578
#        240565
#
# Disc length: 3488 seconds
#
# Revision: 4
# Processed by: cddbd v1.5.2PL0 Copyright (c) Steve Scherf et al.
# Submitted via: ExactAudioCopy v1.0b3
#
DISCID=ae0d9e0e
DTITLE=Vivienne McKone - Vivienne McKone
DYEAR=1992
DGENRE=Soul
TTITLE0=Sing
TTITLE1=Beware
TTITLE2=He's Not Here Anymore
TTITLE3=Move On
TTITLE4=Heading Right Back To You
TTITLE5=A Little Self Control
TTITLE6=Don't Push Me To My Limit
TTITLE7=There Is No Turning Back
TTITLE8=Why
TTITLE9=Fly
TTITLE10=Reaching Your Goals
TTITLE11=I Wanna Get To Know You
TTITLE12=Sing (Remix)
TTITLE13=Zero
EXTD=YEAR: 1992
EXTT0=
EXTT1=
EXTT2=
EXTT3=
EXTT4=
EXTT5=
EXTT6=
EXTT7=
EXTT8=
EXTT9=
EXTT10=
EXTT11=
EXTT12=
EXTT13=
PLAYORDER=
